<mxfile host="app.diagrams.net" modified="2023-03-31T18:39:46.489Z" agent="5.0 (Macintosh; Intel Mac OS X 10_15_7) AppleWebKit/537.36 (KHTML, like Gecko) Chrome/109.0.0.0 Safari/537.36" etag="dsESWiho6DhuhmF7Hzb0" version="21.0.7" type="github">
  <diagram name="Page-1" id="ZEegtyX3KQnmU3FkLwVd">
    <mxGraphModel dx="909" dy="582" grid="1" gridSize="10" guides="1" tooltips="1" connect="1" arrows="1" fold="1" page="1" pageScale="1" pageWidth="850" pageHeight="1100" math="0" shadow="0">
      <root>
        <mxCell id="0" />
        <mxCell id="1" parent="0" />
        <mxCell id="39Nt4OManVwnhByQ2ZVa-1" value="&lt;b&gt;Bedchamber&lt;/b&gt;" style="swimlane;fontStyle=0;childLayout=stackLayout;horizontal=1;startSize=26;fillColor=none;horizontalStack=0;resizeParent=1;resizeParentMax=0;resizeLast=0;collapsible=1;marginBottom=0;whiteSpace=wrap;html=1;" parent="1" vertex="1">
          <mxGeometry x="270" y="430" width="150" height="210" as="geometry" />
        </mxCell>
        <mxCell id="39Nt4OManVwnhByQ2ZVa-2" value="-perimeter : int" style="text;strokeColor=none;fillColor=none;align=left;verticalAlign=top;spacingLeft=4;spacingRight=4;overflow=hidden;rotatable=0;points=[[0,0.5],[1,0.5]];portConstraint=eastwest;whiteSpace=wrap;html=1;" parent="39Nt4OManVwnhByQ2ZVa-1" vertex="1">
          <mxGeometry y="26" width="150" height="26" as="geometry" />
        </mxCell>
        <mxCell id="39Nt4OManVwnhByQ2ZVa-3" value="-area : int&lt;br&gt;&lt;br&gt;-door location : String&lt;br style=&quot;border-color: var(--border-color);&quot;&gt;&lt;br style=&quot;border-color: var(--border-color);&quot;&gt;-window location : String&lt;br&gt;&lt;br&gt;-floorboards : Boolean" style="text;strokeColor=none;fillColor=none;align=left;verticalAlign=top;spacingLeft=4;spacingRight=4;overflow=hidden;rotatable=0;points=[[0,0.5],[1,0.5]];portConstraint=eastwest;whiteSpace=wrap;html=1;" parent="39Nt4OManVwnhByQ2ZVa-1" vertex="1">
          <mxGeometry y="52" width="150" height="158" as="geometry" />
        </mxCell>
        <mxCell id="39Nt4OManVwnhByQ2ZVa-43" value="" style="edgeStyle=orthogonalEdgeStyle;rounded=0;orthogonalLoop=1;jettySize=auto;html=1;endArrow=none;endFill=0;" parent="1" source="39Nt4OManVwnhByQ2ZVa-5" target="39Nt4OManVwnhByQ2ZVa-1" edge="1">
          <mxGeometry relative="1" as="geometry" />
        </mxCell>
        <mxCell id="39Nt4OManVwnhByQ2ZVa-5" value="Narrator" style="swimlane;fontStyle=1;align=center;verticalAlign=top;childLayout=stackLayout;horizontal=1;startSize=26;horizontalStack=0;resizeParent=1;resizeParentMax=0;resizeLast=0;collapsible=1;marginBottom=0;whiteSpace=wrap;html=1;" parent="1" vertex="1">
          <mxGeometry x="265" y="90" width="160" height="300" as="geometry" />
        </mxCell>
        <mxCell id="39Nt4OManVwnhByQ2ZVa-6" value="-Psychopathology : String" style="text;strokeColor=none;fillColor=none;align=left;verticalAlign=top;spacingLeft=4;spacingRight=4;overflow=hidden;rotatable=0;points=[[0,0.5],[1,0.5]];portConstraint=eastwest;whiteSpace=wrap;html=1;" parent="39Nt4OManVwnhByQ2ZVa-5" vertex="1">
          <mxGeometry y="26" width="160" height="26" as="geometry" />
        </mxCell>
        <mxCell id="39Nt4OManVwnhByQ2ZVa-7" value="" style="line;strokeWidth=1;fillColor=none;align=left;verticalAlign=middle;spacingTop=-1;spacingLeft=3;spacingRight=3;rotatable=0;labelPosition=right;points=[];portConstraint=eastwest;strokeColor=inherit;" parent="39Nt4OManVwnhByQ2ZVa-5" vertex="1">
          <mxGeometry y="52" width="160" height="8" as="geometry" />
        </mxCell>
        <mxCell id="39Nt4OManVwnhByQ2ZVa-8" value="+fret()&lt;br&gt;&lt;br&gt;+pace()&lt;br&gt;&lt;br&gt;+stalk()&lt;br&gt;&lt;br&gt;+stab()&lt;br&gt;&lt;br&gt;+dismember()&lt;br&gt;&lt;br&gt;+answerQuestions()&lt;br&gt;&lt;br&gt;+maniacLaugh()&lt;br&gt;&lt;br&gt;+pullUpFloorboards()" style="text;strokeColor=none;fillColor=none;align=left;verticalAlign=top;spacingLeft=4;spacingRight=4;overflow=hidden;rotatable=0;points=[[0,0.5],[1,0.5]];portConstraint=eastwest;whiteSpace=wrap;html=1;" parent="39Nt4OManVwnhByQ2ZVa-5" vertex="1">
          <mxGeometry y="60" width="160" height="240" as="geometry" />
        </mxCell>
        <mxCell id="39Nt4OManVwnhByQ2ZVa-9" value="Old Man" style="swimlane;fontStyle=1;align=center;verticalAlign=top;childLayout=stackLayout;horizontal=1;startSize=26;horizontalStack=0;resizeParent=1;resizeParentMax=0;resizeLast=0;collapsible=1;marginBottom=0;whiteSpace=wrap;html=1;" parent="1" vertex="1">
          <mxGeometry x="450" y="480" width="160" height="140" as="geometry" />
        </mxCell>
        <mxCell id="39Nt4OManVwnhByQ2ZVa-10" value="-age : int" style="text;strokeColor=none;fillColor=none;align=left;verticalAlign=top;spacingLeft=4;spacingRight=4;overflow=hidden;rotatable=0;points=[[0,0.5],[1,0.5]];portConstraint=eastwest;whiteSpace=wrap;html=1;" parent="39Nt4OManVwnhByQ2ZVa-9" vertex="1">
          <mxGeometry y="26" width="160" height="44" as="geometry" />
        </mxCell>
        <mxCell id="39Nt4OManVwnhByQ2ZVa-11" value="" style="line;strokeWidth=1;fillColor=none;align=left;verticalAlign=middle;spacingTop=-1;spacingLeft=3;spacingRight=3;rotatable=0;labelPosition=right;points=[];portConstraint=eastwest;strokeColor=inherit;" parent="39Nt4OManVwnhByQ2ZVa-9" vertex="1">
          <mxGeometry y="70" width="160" height="8" as="geometry" />
        </mxCell>
        <mxCell id="39Nt4OManVwnhByQ2ZVa-12" value="+awaken()&lt;br&gt;+cower()&lt;br&gt;+shriek()" style="text;strokeColor=none;fillColor=none;align=left;verticalAlign=top;spacingLeft=4;spacingRight=4;overflow=hidden;rotatable=0;points=[[0,0.5],[1,0.5]];portConstraint=eastwest;whiteSpace=wrap;html=1;" parent="39Nt4OManVwnhByQ2ZVa-9" vertex="1">
          <mxGeometry y="78" width="160" height="62" as="geometry" />
        </mxCell>
        <mxCell id="39Nt4OManVwnhByQ2ZVa-13" value="The Eye" style="swimlane;fontStyle=1;align=center;verticalAlign=top;childLayout=stackLayout;horizontal=1;startSize=26;horizontalStack=0;resizeParent=1;resizeParentMax=0;resizeLast=0;collapsible=1;marginBottom=0;whiteSpace=wrap;html=1;" parent="1" vertex="1">
          <mxGeometry x="670" y="507" width="160" height="86" as="geometry" />
        </mxCell>
        <mxCell id="39Nt4OManVwnhByQ2ZVa-14" value="-Color : Blue" style="text;strokeColor=none;fillColor=none;align=left;verticalAlign=top;spacingLeft=4;spacingRight=4;overflow=hidden;rotatable=0;points=[[0,0.5],[1,0.5]];portConstraint=eastwest;whiteSpace=wrap;html=1;" parent="39Nt4OManVwnhByQ2ZVa-13" vertex="1">
          <mxGeometry y="26" width="160" height="26" as="geometry" />
        </mxCell>
        <mxCell id="39Nt4OManVwnhByQ2ZVa-15" value="" style="line;strokeWidth=1;fillColor=none;align=left;verticalAlign=middle;spacingTop=-1;spacingLeft=3;spacingRight=3;rotatable=0;labelPosition=right;points=[];portConstraint=eastwest;strokeColor=inherit;" parent="39Nt4OManVwnhByQ2ZVa-13" vertex="1">
          <mxGeometry y="52" width="160" height="8" as="geometry" />
        </mxCell>
        <mxCell id="39Nt4OManVwnhByQ2ZVa-16" value="+flashOpen():&amp;nbsp;" style="text;strokeColor=none;fillColor=none;align=left;verticalAlign=top;spacingLeft=4;spacingRight=4;overflow=hidden;rotatable=0;points=[[0,0.5],[1,0.5]];portConstraint=eastwest;whiteSpace=wrap;html=1;" parent="39Nt4OManVwnhByQ2ZVa-13" vertex="1">
          <mxGeometry y="60" width="160" height="26" as="geometry" />
        </mxCell>
        <mxCell id="39Nt4OManVwnhByQ2ZVa-17" value="Heart" style="swimlane;fontStyle=1;align=center;verticalAlign=top;childLayout=stackLayout;horizontal=1;startSize=26;horizontalStack=0;resizeParent=1;resizeParentMax=0;resizeLast=0;collapsible=1;marginBottom=0;whiteSpace=wrap;html=1;" parent="1" vertex="1">
          <mxGeometry x="530" y="710" width="160" height="140" as="geometry">
            <mxRectangle x="560" y="570" width="70" height="30" as="alternateBounds" />
          </mxGeometry>
        </mxCell>
        <mxCell id="39Nt4OManVwnhByQ2ZVa-18" value="-Color : Red" style="text;strokeColor=none;fillColor=none;align=left;verticalAlign=top;spacingLeft=4;spacingRight=4;overflow=hidden;rotatable=0;points=[[0,0.5],[1,0.5]];portConstraint=eastwest;whiteSpace=wrap;html=1;" parent="39Nt4OManVwnhByQ2ZVa-17" vertex="1">
          <mxGeometry y="26" width="160" height="26" as="geometry" />
        </mxCell>
        <mxCell id="39Nt4OManVwnhByQ2ZVa-19" value="" style="line;strokeWidth=1;fillColor=none;align=left;verticalAlign=middle;spacingTop=-1;spacingLeft=3;spacingRight=3;rotatable=0;labelPosition=right;points=[];portConstraint=eastwest;strokeColor=inherit;" parent="39Nt4OManVwnhByQ2ZVa-17" vertex="1">
          <mxGeometry y="52" width="160" height="8" as="geometry" />
        </mxCell>
        <mxCell id="39Nt4OManVwnhByQ2ZVa-20" value="+beatFaster();&lt;br&gt;+beatLouder();" style="text;strokeColor=none;fillColor=none;align=left;verticalAlign=top;spacingLeft=4;spacingRight=4;overflow=hidden;rotatable=0;points=[[0,0.5],[1,0.5]];portConstraint=eastwest;whiteSpace=wrap;html=1;" parent="39Nt4OManVwnhByQ2ZVa-17" vertex="1">
          <mxGeometry y="60" width="160" height="80" as="geometry" />
        </mxCell>
        <mxCell id="39Nt4OManVwnhByQ2ZVa-30" value="Police" style="swimlane;fontStyle=1;align=center;verticalAlign=top;childLayout=stackLayout;horizontal=1;startSize=26;horizontalStack=0;resizeParent=1;resizeParentMax=0;resizeLast=0;collapsible=1;marginBottom=0;whiteSpace=wrap;html=1;" parent="1" vertex="1">
          <mxGeometry x="10" y="480" width="160" height="150" as="geometry" />
        </mxCell>
        <mxCell id="39Nt4OManVwnhByQ2ZVa-31" value="-TeamMembers : int" style="text;strokeColor=none;fillColor=none;align=left;verticalAlign=top;spacingLeft=4;spacingRight=4;overflow=hidden;rotatable=0;points=[[0,0.5],[1,0.5]];portConstraint=eastwest;whiteSpace=wrap;html=1;" parent="39Nt4OManVwnhByQ2ZVa-30" vertex="1">
          <mxGeometry y="26" width="160" height="26" as="geometry" />
        </mxCell>
        <mxCell id="39Nt4OManVwnhByQ2ZVa-32" value="" style="line;strokeWidth=1;fillColor=none;align=left;verticalAlign=middle;spacingTop=-1;spacingLeft=3;spacingRight=3;rotatable=0;labelPosition=right;points=[];portConstraint=eastwest;strokeColor=inherit;" parent="39Nt4OManVwnhByQ2ZVa-30" vertex="1">
          <mxGeometry y="52" width="160" height="8" as="geometry" />
        </mxCell>
        <mxCell id="39Nt4OManVwnhByQ2ZVa-33" value="+knock()&lt;br&gt;&lt;br&gt;+enterRoom()&lt;br&gt;&lt;br&gt;+interrogate()" style="text;strokeColor=none;fillColor=none;align=left;verticalAlign=top;spacingLeft=4;spacingRight=4;overflow=hidden;rotatable=0;points=[[0,0.5],[1,0.5]];portConstraint=eastwest;whiteSpace=wrap;html=1;" parent="39Nt4OManVwnhByQ2ZVa-30" vertex="1">
          <mxGeometry y="60" width="160" height="90" as="geometry" />
        </mxCell>
        <mxCell id="39Nt4OManVwnhByQ2ZVa-41" value="" style="endArrow=diamondThin;endFill=0;endSize=24;html=1;rounded=0;exitX=-0.006;exitY=0.132;exitDx=0;exitDy=0;exitPerimeter=0;" parent="1" source="39Nt4OManVwnhByQ2ZVa-17" target="39Nt4OManVwnhByQ2ZVa-12" edge="1">
          <mxGeometry width="160" relative="1" as="geometry">
            <mxPoint x="470" y="649" as="sourcePoint" />
            <mxPoint x="650" y="689" as="targetPoint" />
          </mxGeometry>
        </mxCell>
        <mxCell id="39Nt4OManVwnhByQ2ZVa-42" value="" style="endArrow=diamondThin;endFill=0;endSize=24;html=1;rounded=0;entryX=1;entryY=0.5;entryDx=0;entryDy=0;exitX=0;exitY=0.25;exitDx=0;exitDy=0;" parent="1" source="39Nt4OManVwnhByQ2ZVa-13" target="39Nt4OManVwnhByQ2ZVa-10" edge="1">
          <mxGeometry width="160" relative="1" as="geometry">
            <mxPoint x="400" y="510" as="sourcePoint" />
            <mxPoint x="560" y="510" as="targetPoint" />
          </mxGeometry>
        </mxCell>
        <mxCell id="39Nt4OManVwnhByQ2ZVa-45" style="edgeStyle=orthogonalEdgeStyle;rounded=0;orthogonalLoop=1;jettySize=auto;html=1;endArrow=none;endFill=0;" parent="1" source="39Nt4OManVwnhByQ2ZVa-8" target="39Nt4OManVwnhByQ2ZVa-9" edge="1">
          <mxGeometry relative="1" as="geometry" />
        </mxCell>
        <mxCell id="39Nt4OManVwnhByQ2ZVa-46" value="Relation" style="endArrow=none;html=1;endSize=12;startArrow=diamondThin;startSize=14;startFill=0;edgeStyle=orthogonalEdgeStyle;rounded=0;exitX=1;exitY=0.25;exitDx=0;exitDy=0;exitPerimeter=0;endFill=0;" parent="1" source="39Nt4OManVwnhByQ2ZVa-33" target="39Nt4OManVwnhByQ2ZVa-3" edge="1">
          <mxGeometry relative="1" as="geometry">
            <mxPoint x="400" y="440" as="sourcePoint" />
            <mxPoint x="560" y="440" as="targetPoint" />
          </mxGeometry>
        </mxCell>
        <mxCell id="39Nt4OManVwnhByQ2ZVa-47" value="0..n" style="edgeLabel;resizable=0;html=1;align=left;verticalAlign=top;" parent="39Nt4OManVwnhByQ2ZVa-46" connectable="0" vertex="1">
          <mxGeometry x="-1" relative="1" as="geometry" />
        </mxCell>
        <mxCell id="39Nt4OManVwnhByQ2ZVa-48" value="1" style="edgeLabel;resizable=0;html=1;align=right;verticalAlign=top;" parent="39Nt4OManVwnhByQ2ZVa-46" connectable="0" vertex="1">
          <mxGeometry x="1" relative="1" as="geometry" />
        </mxCell>
        <mxCell id="39Nt4OManVwnhByQ2ZVa-50" value="1" style="endArrow=none;html=1;endSize=12;startArrow=diamondThin;startSize=14;startFill=0;edgeStyle=orthogonalEdgeStyle;align=left;verticalAlign=bottom;rounded=0;exitX=-0.006;exitY=0.056;exitDx=0;exitDy=0;exitPerimeter=0;endFill=0;" parent="1" source="39Nt4OManVwnhByQ2ZVa-12" target="39Nt4OManVwnhByQ2ZVa-3" edge="1">
          <mxGeometry x="-1" y="3" relative="1" as="geometry">
            <mxPoint x="400" y="560" as="sourcePoint" />
            <mxPoint x="560" y="560" as="targetPoint" />
          </mxGeometry>
        </mxCell>
        <mxCell id="39Nt4OManVwnhByQ2ZVa-53" style="edgeStyle=orthogonalEdgeStyle;rounded=0;orthogonalLoop=1;jettySize=auto;html=1;endArrow=none;endFill=0;" parent="1" source="39Nt4OManVwnhByQ2ZVa-8" target="39Nt4OManVwnhByQ2ZVa-30" edge="1">
          <mxGeometry relative="1" as="geometry" />
        </mxCell>
        <mxCell id="hs1mN2tJBW9qcZjYl_5e-1" style="edgeStyle=orthogonalEdgeStyle;rounded=0;orthogonalLoop=1;jettySize=auto;html=1;endArrow=none;endFill=0;" edge="1" parent="1" source="39Nt4OManVwnhByQ2ZVa-6" target="39Nt4OManVwnhByQ2ZVa-13">
          <mxGeometry relative="1" as="geometry" />
        </mxCell>
      </root>
    </mxGraphModel>
  </diagram>
</mxfile>
